<svg width="96" height="65" viewBox="0 0 96 65" fill="none" xmlns="http://www.w3.org/2000/svg">
<rect x="0.166992" y="0.167114" width="94.75" height="64.3861" stroke="#F2F2F2" stroke-width="0.334184"/>
<path d="M80.8562 45.088H82.4543L83.0227 52.5672H81.8429L81.7583 51.082L81.7564 51.1034H80.4158L80.0732 52.5672H78.9792L80.8562 45.088ZM81.7058 50.0884L81.5037 46.3915H81.4823L80.644 50.0884H81.7058Z" fill="#DF9C2F"/>
<path d="M74.689 52.6099C74.4744 52.6099 74.2934 52.5957 74.1457 52.5672L74.2392 51.4987C74.3511 51.5272 74.4785 51.5415 74.6216 51.5415C74.8575 51.5415 75.0377 51.4845 75.1621 51.3705C75.2871 51.2494 75.3602 51.0678 75.3813 50.8256L75.8833 45.088H77.0631L76.5639 50.7935C76.5103 51.4061 76.3275 51.862 76.0153 52.1612C75.7102 52.4604 75.2681 52.6099 74.689 52.6099Z" fill="#DF9C2F"/>
<path d="M69.8503 52.6741C69.2783 52.6741 68.8562 52.5139 68.5839 52.1933C68.3122 51.8657 68.2029 51.3991 68.2559 50.7936L68.5999 46.8617C68.6529 46.2562 68.8435 45.7932 69.1719 45.4727C69.5009 45.145 69.9514 44.9812 70.5234 44.9812C71.0954 44.9812 71.5172 45.145 71.7889 45.4727C72.0612 45.7932 72.1708 46.2562 72.1178 46.8617L72.0617 47.5028H70.9463L71.0089 46.7869C71.0519 46.2954 70.8696 46.0497 70.4621 46.0497C70.0545 46.0497 69.8292 46.2954 69.7862 46.7869L69.4282 50.8791C69.3858 51.3635 69.5684 51.6057 69.976 51.6057C70.3836 51.6057 70.6085 51.3635 70.6509 50.8791L70.779 49.4153H70.1891L70.2825 48.3469H71.9879L71.7738 50.7936C71.7209 51.3991 71.5299 51.8657 71.2009 52.1933C70.8725 52.5139 70.4224 52.6741 69.8503 52.6741Z" fill="#DF9C2F"/>
<path d="M63.5502 52.6741C62.9711 52.6741 62.5421 52.5103 62.2633 52.1826C61.9845 51.855 61.8713 51.392 61.9236 50.7936L62.2676 46.8617C62.32 46.2634 62.5142 45.8004 62.8503 45.4727C63.1865 45.145 63.6441 44.9812 64.2233 44.9812C64.8025 44.9812 65.2314 45.145 65.5102 45.4727C65.789 45.8004 65.9023 46.2634 65.8499 46.8617L65.5059 50.7936C65.4536 51.392 65.2593 51.855 64.9232 52.1826C64.5871 52.5103 64.1294 52.6741 63.5502 52.6741ZM63.6437 51.6057C64.0513 51.6057 64.2766 51.3599 64.3196 50.8684L64.6767 46.7869C64.7197 46.2954 64.5374 46.0497 64.1298 46.0497C63.7222 46.0497 63.497 46.2954 63.454 46.7869L63.0969 50.8684C63.0539 51.3599 63.2361 51.6057 63.6437 51.6057Z" fill="#DF9C2F"/>
<path d="M57.2529 52.6099C57.0384 52.6099 56.8573 52.5957 56.7097 52.5672L56.8031 51.4987C56.9151 51.5272 57.0425 51.5415 57.1855 51.5415C57.4215 51.5415 57.6016 51.4845 57.726 51.3705C57.851 51.2494 57.9241 51.0678 57.9453 50.8256L58.4473 45.088H59.6271L59.1279 50.7935C59.0743 51.4061 58.8914 51.862 58.5792 52.1612C58.2742 52.4604 57.8321 52.6099 57.2529 52.6099Z" fill="#DF9C2F"/>
<path d="M41.7648 7.69562C42.7716 7.69562 43.5879 8.51186 43.5879 9.51872C43.5879 10.5256 42.7716 11.3418 41.7648 11.3418C39.6487 11.3418 37.9358 13.0618 37.9444 15.1778L38.0032 29.6438L41.2188 23.4417C42.6067 20.7646 45.3709 19.0841 48.3864 19.0841H53.4616C54.4685 19.0841 55.2847 19.9003 55.2847 20.9072C55.2847 21.914 54.4685 22.7303 53.4616 22.7303H48.3864C46.7328 22.7303 45.2169 23.6519 44.4557 25.1199L40.356 33.0273C42.9325 33.894 44.9672 36.0319 45.6317 38.7888L48.3313 49.989C48.8106 51.9776 50.5899 53.379 52.6355 53.379H53.1696C54.1765 53.379 54.9927 54.1953 54.9928 55.2021C54.9927 56.209 54.1765 57.0252 53.1696 57.0252H52.6355C48.9053 57.0252 45.6608 54.4697 44.7867 50.8434L42.087 39.6432C41.6076 37.6546 39.8283 36.2532 37.7827 36.2532H37.5556C36.4444 39.3822 33.4576 41.6246 29.9453 41.6246H24.6336C23.6267 41.6246 22.8105 40.8085 22.8105 39.8016C22.8105 38.7948 23.6267 37.9785 24.6336 37.9785H29.9453C32.3976 37.9785 34.3828 35.9852 34.3728 33.533L34.2983 15.1926C34.2815 11.0571 37.6292 7.69562 41.7648 7.69562Z" fill="#1F526D"/>
<path d="M22.3329 19.1149C26.7918 19.1149 30.407 22.7295 30.407 27.1886V32.2863C30.407 33.2931 29.5907 34.1094 28.5839 34.1094C27.577 34.1094 26.7608 33.2931 26.7608 32.2863V30.2714H15.2571C13.1288 30.2714 11.4035 31.9967 11.4035 34.125C11.4035 36.2532 13.1288 37.9785 15.2571 37.9785H17.2638C18.2707 37.9785 19.0869 38.7948 19.0869 39.8016C19.0869 40.8085 18.2707 41.6247 17.2638 41.6247H15.2571C11.1151 41.6247 7.75733 38.2669 7.75732 34.125C7.75732 29.983 11.1151 26.6252 15.2571 26.6252H26.7252C26.4484 24.4461 24.5874 22.7611 22.3329 22.7611H20.9309C19.9241 22.7611 19.1078 21.9448 19.1078 20.938C19.1078 19.9311 19.9241 19.1149 20.9309 19.1149H22.3329Z" fill="#1F526D"/>
<path fill-rule="evenodd" clip-rule="evenodd" d="M64.0792 18.9903C68.5589 18.9903 72.1823 22.6375 72.1528 27.1171L72.0695 39.7872C72.0658 40.3525 71.8051 40.856 71.399 41.1877C71.0804 41.4601 70.667 41.6247 70.2151 41.6247H56.9167C52.7734 41.6247 49.42 38.2657 49.42 34.125C49.42 29.983 52.7778 26.6252 56.9198 26.6252H68.4852C68.2651 24.3876 66.3779 22.6365 64.0792 22.6365C62.8762 22.6365 61.7097 22.6365 60.7984 22.6365C59.7916 22.6365 58.9753 21.8203 58.9753 20.8134C58.9753 19.8066 59.7916 18.9903 60.7984 18.9903H64.0792ZM56.9198 30.2714C54.7915 30.2714 53.0662 31.9967 53.0662 34.125C53.0662 36.2545 54.7897 37.9785 56.9167 37.9785H68.4352L68.4859 30.2714H56.9198Z" fill="#1F526D"/>
<path d="M85.5039 26.6252C86.5107 26.6252 87.327 27.4414 87.327 28.4483C87.327 29.4552 86.5107 30.2714 85.5039 30.2714H83.9621C81.5168 30.2714 79.5346 32.2537 79.5346 34.6989V39.8016C79.5346 40.8085 78.7183 41.6246 77.7115 41.6246C76.7046 41.6246 75.8884 40.8085 75.8884 39.8016V34.6989C75.8884 30.2399 79.5031 26.6252 83.9621 26.6252H85.5039Z" fill="#1F526D"/>
</svg>
